<?xml version="1.0" encoding="UTF-8"?>
<svg id="Layer_1" data-name="Layer 1" xmlns="http://www.w3.org/2000/svg" xmlns:xlink="http://www.w3.org/1999/xlink" viewBox="0 0 390.67 295.99">
  <defs>
    <style>
      .cls-1, .cls-2 {
        fill: #0077b2;
      }

      .cls-3 {
        fill: none;
      }

      .cls-2 {
        fill-rule: evenodd;
      }

      .cls-4 {
        clip-path: url(#clippath);
      }
    </style>
    <clipPath id="clippath">
      <rect class="cls-3" width="390.66" height="295.99"/>
    </clipPath>
  </defs>
  <g>
    <g>
      <path class="cls-1" d="M147.36,115.01v-3.37c0-1.18.41-2.22,1.08-3.03,1.27-1.54,3.47-2.23,5.48-1.43l46.99,8.87-38.48-22.22c-3.24-1.87-6.91-2.82-10.63-2.76-3.47.06-6.91,1.01-9.93,2.76-1.29.74-2.48,1.62-3.57,2.62-1.23,1.12-2.33,2.4-3.26,3.79-.18.27-.35.54-.52.82-.01.02-.02.04-.04.06-1.94,3.25-2.24,7.23-.99,10.8l13.86,39.56v-36.47Z"/>
      <path class="cls-1" d="M157.47,168.14l-2.91,1.68c-1.03.59-2.13.75-3.17.58-.58-.1-1.13-.29-1.63-.58h0s0,0,0,0c-1.13-.65-2-1.76-2.29-3.14h0s-15.87-45.28-15.87-45.28v44.28c0,3.74,1.01,7.4,2.93,10.58,1.79,2.98,4.33,5.47,7.35,7.22,1.29.74,2.65,1.34,4.05,1.79,1.59.51,3.24.82,4.91.93.32.02.64.04.97.04.02,0,.05,0,.07,0,3.79.05,7.38-1.68,9.85-4.55l27.33-31.78-31.59,18.24Z"/>
      <path class="cls-1" d="M219.03,134.32c-.35-1.63-.9-3.22-1.63-4.72-.15-.31-.31-.62-.48-.92-.01-.02-.02-.04-.03-.06-1.83-3.27-5.08-5.49-8.76-6.18l-41.16-7.77,31.54,18.21,2.83,1.63c1.05.6,1.75,1.51,2.11,2.51.19.53.29,1.08.29,1.64,0,1.31-.53,2.62-1.58,3.56h0s-31.28,36.38-31.28,36.38l38.34-22.14c3.24-1.87,5.9-4.58,7.7-7.83,1.68-3.04,2.57-6.49,2.57-9.98,0-1.46-.16-2.92-.47-4.34Z"/>
    </g>
    <path class="cls-1" d="M182.67,130.3c.78,1.36,1.36,2.77,1.74,4.23.37,1.46.56,2.93.55,4.39,0,1.47-.2,2.92-.58,4.34-.38,1.43-.93,2.78-1.65,4.06-.72,1.28-1.61,2.46-2.67,3.54-1.06,1.08-2.27,2.02-3.63,2.8-1.36.78-2.77,1.36-4.23,1.74-1.46.37-2.93.55-4.4.54-1.47-.01-2.92-.21-4.35-.59-1.43-.38-2.78-.94-4.06-1.66-1.28-.73-2.46-1.62-3.54-2.67-1.08-1.05-2.01-2.26-2.8-3.62-.78-1.36-1.36-2.77-1.74-4.24-.38-1.47-.56-2.93-.54-4.4.02-1.46.21-2.91.6-4.34.38-1.43.94-2.78,1.67-4.05.73-1.27,1.62-2.45,2.68-3.53,1.05-1.08,2.26-2.01,3.62-2.8,1.36-.78,2.77-1.37,4.24-1.74,1.47-.38,2.93-.56,4.4-.55,1.46,0,2.9.2,4.33.59,1.43.38,2.78.94,4.05,1.66,1.27.72,2.45,1.61,3.53,2.68,1.08,1.06,2.02,2.27,2.8,3.63ZM176.98,133.59c-.72-1.25-1.64-2.29-2.77-3.13-1.12-.84-2.33-1.43-3.62-1.77-1.29-.35-2.63-.44-4.02-.28-1.39.16-2.71.61-3.96,1.33-1.26.73-2.31,1.65-3.14,2.77-.83,1.12-1.42,2.32-1.77,3.62-.35,1.3-.45,2.64-.28,4.03.16,1.39.6,2.71,1.33,3.96.72,1.25,1.64,2.29,2.75,3.11,1.11.82,2.32,1.41,3.62,1.76,1.3.35,2.64.44,4.03.29,1.38-.16,2.71-.6,3.97-1.33,1.25-.72,2.29-1.64,3.13-2.77.83-1.12,1.42-2.33,1.77-3.63.34-1.3.44-2.64.28-4.01-.15-1.37-.59-2.69-1.32-3.94Z"/>
  </g>
  <g class="cls-4">
    <path class="cls-2" d="M18.94,237.61V91.38h19.52v-18.95h-19.78c-10.27,0-18.68,8.41-18.68,18.69v146.74c0,10.28,8.41,18.69,18.68,18.69h125.33c-17.52-7.46-35.91-12.79-54.7-15.86-4.71-.77-9.44-1.4-14.19-1.88-3.85-.39-7.7-.7-11.56-.9-2.97-.16-5.94-.26-8.91-.31h-8.57l-7.62.05v-.05h-19.52ZM247.34,201.32c-22.4,10.77-43.66,23.79-63.45,38.89,18.67-22.48,39.98-42.59,63.45-59.91V30.33c-24.16,6.98-46.89,18.39-67.02,33.72,18.91-19.63,41.78-34.9,67.02-44.86,4.86-1.92,9.81-3.64,14.83-5.15v180.55c-5,2.13-9.94,4.38-14.83,6.73ZM319.46,237.61v-126.58c.5.04,1,.05,1.5.05h17.43v126.78c0,10.28-8.41,18.69-18.68,18.69h-125.32c17.52-7.46,35.9-12.79,54.7-15.86,4.71-.77,9.44-1.39,14.19-1.88,3.85-.4,7.69-.7,11.56-.9,2.97-.16,5.95-.26,8.91-.31h8.57l7.62.05v-.05h19.52ZM274.26,211.62V45.92h14.83v180.82c-4.95-.04-9.9.08-14.83.34-4.04.21-8.07.52-12.09.93-4.96.51-9.91,1.16-14.83,1.97-22.45,3.67-44.36,10.42-65.1,20.11,19.33-15.36,41.49-26.59,65.1-33.14,4.89-1.35,9.83-2.51,14.83-3.46,4-.75,8.03-1.38,12.09-1.87ZM121.59,277.42h33.76v-5.01c0-2.53,2.34-4.59,5.21-4.59h17.28c2.86,0,5.2,2.07,5.2,4.59v5.01h33.76c4.47,0,8.12,3.22,8.12,7.17v4.15c0,3.95-3.65,7.17-8.12,7.17h-95.21c-4.47,0-8.12-3.23-8.12-7.17v-4.15c0-3.95,3.66-7.17,8.12-7.17ZM64.13,211.62V45.92h-14.83v180.82c4.95-.04,9.9.08,14.83.34,4.04.21,8.07.52,12.08.93,4.96.51,9.91,1.16,14.83,1.97,22.45,3.67,44.36,10.42,65.1,20.11-19.33-15.36-41.49-26.59-65.1-33.14-4.89-1.35-9.84-2.51-14.83-3.46-4-.75-8.03-1.38-12.08-1.87ZM343.78.07h13.24c1.04,0,1.88.84,1.88,1.88v13.25c0,1.03-.84,1.88-1.88,1.88h-13.24c-1.03,0-1.88-.85-1.88-1.88V1.94c0-1.04.85-1.88,1.88-1.88ZM320.96,48.86h32.74c.51,0,.96-.19,1.33-.55l6.77-6.77c.36-.36.55-.81.55-1.33v-17.82c0-1.03.84-1.88,1.88-1.88h24.58c1.04,0,1.88.85,1.88,1.88v24.59c0,1.03-.84,1.88-1.88,1.88h-17.81c-.52,0-.96.19-1.33.55l-6.77,6.77c-.36.36-.55.81-.55,1.33v32.76c0,1.03-.85,1.88-1.88,1.88h-39.51c-1.03,0-1.88-.85-1.88-1.88v-39.53c0-1.04.84-1.88,1.88-1.88ZM91.05,201.32c22.4,10.77,43.66,23.79,63.45,38.89-18.67-22.48-39.98-42.59-63.45-59.91V30.33c24.15,6.98,46.89,18.39,67.02,33.72-18.92-19.63-41.78-34.9-67.02-44.86-4.86-1.92-9.81-3.64-14.83-5.15v180.55c5,2.13,9.94,4.38,14.84,6.73Z"/>
  </g>
</svg>