<?xml version="1.0" encoding="UTF-8"?>
<svg id="Layer_1" data-name="Layer 1" xmlns="http://www.w3.org/2000/svg" xmlns:xlink="http://www.w3.org/1999/xlink" viewBox="0 0 988.15 266.5">
  <defs>
    <style>
      .cls-1, .cls-2 {
        fill: #0077b2;
      }

      .cls-3 {
        font-size: 80px;
        letter-spacing: .15em;
      }

      .cls-3, .cls-4 {
        fill: #404040;
        font-family: Broadway, Broadway;
      }

      .cls-5 {
        letter-spacing: .28em;
      }

      .cls-6 {
        letter-spacing: .3em;
      }

      .cls-4 {
        font-size: 50px;
      }

      .cls-7 {
        fill: none;
      }

      .cls-8 {
        letter-spacing: .29em;
      }

      .cls-9 {
        letter-spacing: .31em;
      }

      .cls-2 {
        fill-rule: evenodd;
      }

      .cls-10 {
        clip-path: url(#clippath);
      }
    </style>
    <clipPath id="clippath">
      <rect class="cls-7" width="351.74" height="266.5"/>
    </clipPath>
  </defs>
  <g>
    <g>
      <path class="cls-1" d="M133.2,94.57v-3.03c0-1.07.37-2,.97-2.73,1.14-1.39,3.12-2.01,4.93-1.28l42.31,7.99-34.64-20c-2.91-1.68-6.22-2.54-9.57-2.48-3.13.05-6.22.91-8.94,2.48-1.16.67-2.24,1.46-3.22,2.35-1.11,1.01-2.1,2.16-2.93,3.41-.16.24-.32.49-.47.74-.01.02-.02.04-.03.05-1.75,2.93-2.01,6.51-.89,9.73l12.48,35.62v-32.84Z"/>
      <path class="cls-1" d="M142.3,142.4l-2.62,1.52c-.92.53-1.92.68-2.85.52-.52-.09-1.01-.26-1.47-.52h0s0,0,0,0c-1.02-.59-1.8-1.59-2.06-2.83h0s-14.28-40.77-14.28-40.77v39.87c0,3.37.91,6.66,2.63,9.53,1.61,2.68,3.9,4.93,6.62,6.5,1.16.67,2.38,1.21,3.65,1.61,1.43.46,2.92.74,4.42.84.29.02.58.03.87.04.02,0,.04,0,.06,0,3.41.05,6.64-1.51,8.87-4.09l24.6-28.61-28.44,16.42Z"/>
      <path class="cls-1" d="M197.73,111.95c-.32-1.47-.81-2.9-1.47-4.25-.14-.28-.28-.56-.43-.83-.01-.02-.02-.04-.03-.06-1.64-2.94-4.58-4.94-7.89-5.57l-37.06-7,28.4,16.39,2.55,1.47c.94.54,1.57,1.36,1.9,2.26.17.48.26.98.26,1.48,0,1.18-.47,2.36-1.42,3.2h0s-28.17,32.76-28.17,32.76l34.52-19.93c2.91-1.68,5.31-4.12,6.93-7.05,1.52-2.74,2.32-5.84,2.32-8.98,0-1.32-.14-2.63-.42-3.91Z"/>
    </g>
    <path class="cls-1" d="M164.99,108.34c.71,1.22,1.23,2.49,1.56,3.81.34,1.32.5,2.64.5,3.96,0,1.32-.18,2.62-.52,3.91-.34,1.29-.84,2.5-1.49,3.65-.65,1.15-1.45,2.21-2.4,3.19-.96.97-2.04,1.82-3.27,2.52-1.22.71-2.49,1.23-3.81,1.56-1.32.34-2.64.5-3.96.49-1.32-.01-2.63-.19-3.92-.53-1.29-.34-2.51-.84-3.66-1.5-1.15-.65-2.21-1.45-3.19-2.4-.97-.95-1.81-2.04-2.52-3.26-.71-1.22-1.23-2.5-1.57-3.82-.34-1.32-.5-2.64-.49-3.96.01-1.32.19-2.62.54-3.91.34-1.29.84-2.5,1.5-3.65.66-1.15,1.46-2.21,2.41-3.18.95-.97,2.04-1.81,3.26-2.52,1.22-.71,2.5-1.23,3.82-1.57,1.32-.34,2.64-.51,3.96-.5,1.31,0,2.62.18,3.9.53,1.29.34,2.5.84,3.64,1.49,1.14.65,2.2,1.45,3.18,2.41.98.96,1.82,2.04,2.52,3.27ZM159.87,111.3c-.65-1.13-1.48-2.07-2.49-2.82-1.01-.75-2.1-1.28-3.26-1.6-1.16-.31-2.37-.39-3.62-.25-1.25.15-2.44.55-3.57,1.2-1.14.66-2.08,1.49-2.83,2.5-.75,1.01-1.28,2.09-1.6,3.26-.32,1.17-.4,2.37-.26,3.63.15,1.25.54,2.44,1.19,3.57.65,1.13,1.48,2.06,2.48,2.8,1,.74,2.09,1.27,3.26,1.58,1.17.31,2.38.4,3.63.26,1.24-.14,2.44-.54,3.57-1.2,1.13-.65,2.07-1.48,2.82-2.49.75-1.01,1.28-2.1,1.59-3.27.31-1.17.39-2.37.25-3.61-.14-1.24-.53-2.42-1.19-3.55Z"/>
  </g>
  <g class="cls-10">
    <path class="cls-2" d="M17.05,213.94V82.28h17.57v-17.06h-17.81c-9.25,0-16.82,7.57-16.82,16.83v132.12c0,9.25,7.57,16.82,16.82,16.82h112.84c-15.77-6.71-32.33-11.52-49.25-14.28-4.24-.69-8.5-1.26-12.77-1.7-3.46-.35-6.93-.63-10.41-.81-2.67-.14-5.35-.23-8.03-.28h-7.72l-6.86.05v-.05h-17.57ZM222.7,181.26c-20.17,9.7-39.31,21.42-57.13,35.01,16.81-20.24,36-38.35,57.13-53.94V27.3c-21.75,6.28-42.22,16.56-60.34,30.36,17.03-17.67,37.62-31.42,60.34-40.39,4.38-1.73,8.83-3.28,13.35-4.64v162.56c-4.5,1.92-8.95,3.94-13.35,6.06ZM287.63,213.94v-113.97c.45.03.9.05,1.35.05h15.69v114.15c0,9.25-7.57,16.83-16.82,16.83h-112.83c15.77-6.71,32.33-11.52,49.25-14.28,4.24-.69,8.5-1.26,12.77-1.69,3.46-.36,6.93-.63,10.4-.81,2.67-.14,5.35-.23,8.03-.28h7.72l6.86.05v-.05h17.57ZM246.93,190.54V41.34h13.35v162.81c-4.46-.03-8.91.07-13.35.31-3.64.19-7.27.47-10.88.84-4.47.46-8.92,1.05-13.35,1.77-20.21,3.3-39.94,9.38-58.61,18.11,17.41-13.83,37.35-23.94,58.61-29.84,4.4-1.22,8.85-2.26,13.35-3.11,3.6-.68,7.23-1.24,10.88-1.69ZM109.48,249.78h30.4v-4.51c0-2.28,2.11-4.14,4.69-4.14h15.56c2.58,0,4.68,1.86,4.68,4.14v4.51h30.4c4.02,0,7.31,2.9,7.31,6.46v3.73c0,3.55-3.29,6.46-7.31,6.46h-85.73c-4.02,0-7.31-2.9-7.31-6.46v-3.73c0-3.55,3.29-6.46,7.31-6.46ZM57.75,190.54V41.34h-13.35v162.81c4.46-.03,8.91.07,13.35.31,3.63.19,7.27.47,10.88.84,4.47.46,8.92,1.05,13.35,1.77,20.21,3.3,39.94,9.38,58.61,18.11-17.41-13.83-37.35-23.94-58.61-29.84-4.4-1.22-8.86-2.26-13.35-3.11-3.6-.68-7.23-1.24-10.88-1.69ZM309.53.06h11.92c.93,0,1.69.76,1.69,1.69v11.93c0,.93-.76,1.69-1.69,1.69h-11.92c-.93,0-1.69-.76-1.69-1.69V1.75c0-.93.76-1.69,1.69-1.69ZM288.98,43.99h29.48c.46,0,.87-.17,1.19-.49l6.09-6.1c.33-.33.49-.73.49-1.2v-16.04c0-.93.76-1.69,1.69-1.69h22.13c.93,0,1.69.76,1.69,1.69v22.14c0,.93-.76,1.69-1.69,1.69h-16.03c-.47,0-.87.17-1.2.49l-6.09,6.1c-.33.33-.49.73-.49,1.2v29.5c0,.93-.76,1.69-1.69,1.69h-35.58c-.93,0-1.69-.76-1.69-1.69v-35.59c0-.93.76-1.69,1.69-1.69ZM81.98,181.26c20.17,9.7,39.31,21.42,57.13,35.01-16.81-20.24-36-38.35-57.13-53.94V27.3c21.74,6.28,42.22,16.56,60.34,30.36-17.03-17.67-37.62-31.42-60.34-40.39-4.38-1.73-8.83-3.28-13.35-4.64v162.56c4.5,1.92,8.95,3.94,13.36,6.06Z"/>
  </g>
  <g>
    <text class="cls-3" transform="translate(365.19 142.27)"><tspan x="0" y="0">Multimedia</tspan></text>
    <text class="cls-4" transform="translate(365.19 224.87)"><tspan class="cls-6" x="0" y="0">S</tspan><tspan class="cls-5" x="44.86" y="0">y</tspan><tspan class="cls-8" x="89.2" y="0">s</tspan><tspan class="cls-9" x="127.64" y="0">t</tspan><tspan class="cls-6" x="164.61" y="0">ems</tspan></text>
  </g>
</svg>